<?xml version="1.0" encoding="UTF-8"?>
<svg version="1.1" xmlns="http://www.w3.org/2000/svg" width="1586" height="602">
<path d="M0 0 C2.39976376 2.15758577 4.72730223 4.37441297 7.0546875 6.609375 C8.42508313 7.76071111 9.79989621 8.90681578 11.1796875 10.046875 C24.54383304 21.77404689 36.49079327 40.87204203 38.27587891 58.83520508 C39.06964408 74.67504237 36.40717794 86.965111 25.83203125 99.17578125 C20.22095587 105.14255079 14.4615227 109.14534181 7.0546875 112.609375 C-4.49701907 105.28574404 -10.95977768 96.63143693 -17.9453125 84.984375 C-30.30503346 64.8792289 -51.61599772 54.37736873 -73.9453125 48.609375 C-95.08379927 43.9779088 -117.9164239 48.60961949 -136.28515625 59.609375 C-159.3542583 74.97048932 -174.36648843 96.43447069 -180.625 123.5546875 C-184.70982581 144.5383817 -180.62091929 166.62894054 -168.9453125 184.609375 C-166.74197907 187.72615068 -164.38682985 190.67657672 -161.9453125 193.609375 C-161.31109375 194.40214844 -160.676875 195.19492187 -160.0234375 196.01171875 C-153.65178828 203.59302318 -146.08548247 209.09018855 -137.9453125 214.609375 C-137.06746094 215.20878906 -136.18960938 215.80820312 -135.28515625 216.42578125 C-119.9658718 226.22091638 -102.160193 231.13136993 -84.0703125 227.921875 C-63.44816698 222.85085561 -44.15272531 209.11464274 -30.69140625 192.69921875 C-28.50701361 190.08478908 -26.16119205 187.64709484 -23.8203125 185.171875 C-17.58010445 178.45745425 -12.14492066 171.17542687 -6.64550781 163.85351562 C-3.81102178 160.11218943 -0.90442251 156.42765376 1.9921875 152.734375 C6.85135536 146.52010383 11.58378457 140.22536996 16.2421875 133.859375 C26.89621727 119.31368324 38.28187189 105.4292181 49.76806641 91.53710938 C59.75644162 79.43385599 69.02091734 66.93570615 78.0546875 54.109375 C79.56908098 51.96471092 81.08385136 49.8203146 82.59912109 47.67626953 C83.54093499 46.33890011 84.47901908 44.99889292 85.41259766 43.65576172 C99.52925549 23.36731573 116.48979074 6.84404825 138.0546875 -5.390625 C139.16714844 -6.04546875 140.27960938 -6.7003125 141.42578125 -7.375 C179.15068309 -29.02576761 225.8761653 -32.71275467 267.56640625 -22.03515625 C308.53970716 -10.75075664 345.32662806 15.48724573 367.12109375 52.19140625 C389.62975895 91.9794508 395.03317628 138.43259795 383.4296875 182.671875 C375.85729015 209.81596985 362.01708381 233.98060586 342.44482422 254.17236328 C341.18855079 255.47099788 339.95054807 256.78724661 338.71484375 258.10546875 C312.58431677 285.37005115 269.48611303 302.62923982 232.06640625 303.8125 C206.41249338 304.19198865 182.55109291 298.8958727 159.0546875 288.609375 C158.30396973 288.28598145 157.55325195 287.96258789 156.77978516 287.62939453 C146.31829022 283.10977587 136.1309856 278.28456998 126.23339844 272.62011719 C122.03144111 270.25076579 122.03144111 270.25076579 117.34375 269.6171875 C109.27946152 273.11262995 102.55703513 279.75872008 96.24609375 285.7265625 C93.40654436 288.16624664 91.19510647 289.44248442 87.4921875 289.984375 C85.0546875 289.609375 85.0546875 289.609375 83.3046875 288.046875 C78.55683315 278.78855901 81.0794277 265.21228065 82.1171875 255.234375 C82.24295166 254.02338135 82.36871582 252.8123877 82.49829102 251.56469727 C83.83031637 239.50983077 85.63247548 227.53019654 87.4921875 215.546875 C87.7097319 214.13610687 87.7097319 214.13610687 87.93167114 212.69683838 C89.96350327 199.59220008 92.35359745 186.59237412 95.0546875 173.609375 C106.28967029 173.51486042 117.46273279 173.70985537 128.6796875 174.359375 C129.79455536 174.42322891 129.79455536 174.42322891 130.9319458 174.4883728 C184.30031833 177.62897957 184.30031833 177.62897957 206.0546875 187.609375 C206.78896512 205.20484242 206.78896512 205.20484242 200.6171875 212.484375 C199.05174682 213.78254532 197.45334891 215.0436751 195.8046875 216.234375 C193.75755875 217.58310334 193.75755875 217.58310334 193.0546875 220.609375 C193.6940625 220.856875 194.3334375 221.104375 194.9921875 221.359375 C196.68173148 222.04898479 198.36453659 222.76088437 200.00390625 223.5625 C215.98313417 231.25088973 233.69833596 229.22018166 250.0546875 223.609375 C260.22921241 219.85255139 269.32863848 215.11137531 278.0546875 208.609375 C279.00085938 207.90941406 279.94703125 207.20945312 280.921875 206.48828125 C298.81465606 192.58544167 310.36893279 172.31433324 313.42578125 149.88671875 C315.93308935 126.39231324 309.01240298 101.72904691 294.6171875 82.921875 C293.4368987 81.47844822 292.24965151 80.04067634 291.0546875 78.609375 C290.55710937 77.96613281 290.05953125 77.32289063 289.546875 76.66015625 C276.0525577 59.94483356 254.27180006 48.34439342 233.0546875 45.609375 C214.86570366 44.57114541 197.32580526 47.33371456 183.1171875 59.546875 C179.1626659 63.34929961 175.57954714 67.41115036 172.0546875 71.609375 C171.12769262 72.68739521 170.19918023 73.76411151 169.26953125 74.83984375 C163.08259798 82.00533271 157.01738849 89.25570135 151.0546875 96.609375 C150.05912883 97.82335567 149.06299796 99.03686724 148.06640625 100.25 C141.87242929 107.80693408 135.83781154 115.45944758 129.93505859 123.24584961 C125.66543028 128.85881117 121.25628126 134.34439263 116.7890625 139.80078125 C113.32698606 144.03220801 109.91822435 148.29926904 106.5546875 152.609375 C102.07286221 158.34961561 97.4951184 164.00631179 92.890625 169.6484375 C88.94051299 174.49715319 85.06188212 179.39660375 81.21435547 184.3269043 C77.76094202 188.74042891 74.22981222 193.08594565 70.6796875 197.421875 C66.14590427 202.96219311 61.74903529 208.58801934 57.4296875 214.296875 C52.67144845 220.57971594 47.73757466 226.65644735 42.6015625 232.6328125 C40.21080633 235.42691711 37.87380235 238.2557124 35.5546875 241.109375 C19.65403565 260.58129625 4.08920388 277.22694746 -19.14941406 287.79101562 C-20.71452578 288.50420955 -22.26496709 289.24942545 -23.8125 290 C-62.21146016 307.58561074 -110.99795804 307.34030253 -150.17626953 292.78027344 C-154.86832788 290.92942689 -159.41673288 288.82641828 -163.9453125 286.609375 C-164.56567383 286.31337402 -165.18603516 286.01737305 -165.82519531 285.71240234 C-182.18174992 277.84033199 -196.21294025 266.45645331 -208.9453125 253.609375 C-207.64366545 249.45150719 -206.05535843 245.64033903 -204.1328125 241.734375 C-192.01666592 215.64033248 -188.40926092 184.9173489 -197.70898438 157.34521484 C-200.91167643 148.72213929 -205.0601403 140.72275704 -210.9453125 133.609375 C-211.53828125 132.89265625 -212.13125 132.1759375 -212.7421875 131.4375 C-221.86616265 121.40866782 -234.28166558 117.77232014 -247.3828125 116.484375 C-248.62321289 116.35482422 -248.62321289 116.35482422 -249.88867188 116.22265625 C-251.90698028 116.01265884 -253.92607383 115.81023049 -255.9453125 115.609375 C-255.80122573 76.77798926 -230.59603063 40.78375861 -204.14208984 14.43774414 C-182.66555636 -6.26749783 -155.81205552 -21.16514913 -126.9453125 -28.390625 C-126.23922852 -28.56996582 -125.53314453 -28.74930664 -124.80566406 -28.93408203 C-82.82568797 -39.05228115 -33.4368339 -27.13971134 0 0 Z " fill="#009832" transform="translate(503.9453125,126.390625)"/>
<path d="M0 0 C16.03477974 11.19325345 26.00662354 25.92823793 30.1953125 45.09375 C42.40696697 114.47323821 12.10339317 196.04600949 -5.92327881 261.83435059 C-6.53871397 264.08175345 -7.15104757 266.33000864 -7.75982666 268.57922363 C-20.03771008 313.80409667 -38.35744968 348.38502429 -75.29296875 377.8671875 C-79.4369284 381.28550443 -83.34063944 384.94749285 -87.265625 388.61328125 C-89.9921875 391.09375 -89.9921875 391.09375 -92.69921875 393.18359375 C-94.88018276 395.00044452 -96.01301341 396.35608138 -97.3046875 398.84375 C-98.14 400.4525 -98.14 400.4525 -98.9921875 402.09375 C-85.92470175 399.16128273 -75.47895528 393.30537132 -64.9921875 385.09375 C-64.074375 384.38089844 -63.1565625 383.66804688 -62.2109375 382.93359375 C-52.85113422 375.47993018 -44.7182332 367.27190012 -37.26171875 357.921875 C-34.95815427 355.05134026 -32.57389202 352.26389786 -30.1796875 349.46875 C-24.5756393 342.75080008 -19.60001182 335.63963883 -14.62353516 328.45019531 C-0.06041258 307.41408949 14.45792488 286.77588843 32.0078125 268.09375 C32.58917969 267.45824219 33.17054688 266.82273437 33.76953125 266.16796875 C51.90490384 247.0276133 78.32757543 231.50722353 105.0559082 230.6237793 C116.42275423 230.500303 125.79140456 231.92543271 135.0078125 239.09375 C135.63171875 239.56296875 136.255625 240.0321875 136.8984375 240.515625 C150.99898039 251.81758686 156.64778079 270.73180304 158.6953125 288.09375 C158.82033789 289.75898185 158.92365761 291.42595312 159.0078125 293.09375 C159.08708984 294.48207031 159.08708984 294.48207031 159.16796875 295.8984375 C160.13533279 328.95705199 146.42126124 360.0847567 124.03710938 383.90478516 C122.69926135 385.30613862 121.35368176 386.7000984 120.0078125 388.09375 C119.28078125 388.87234375 118.55375 389.6509375 117.8046875 390.453125 C111.4566856 397.08326032 104.32085261 402.58592883 97.0078125 408.09375 C95.97398437 408.88394531 94.94015625 409.67414063 93.875 410.48828125 C45.94783895 445.99206272 -38.00091732 489.50116017 -99.4140625 480.59765625 C-109.72304378 478.2820602 -116.81746461 473.68993285 -122.9921875 465.09375 C-141.3330001 435.34087623 -140.3608592 389.49450483 -143.1796875 355.65625 C-143.25832031 354.7343689 -143.33695313 353.81248779 -143.41796875 352.8626709 C-146.34775134 318.09788312 -147.33446696 283.30758322 -147.25292969 248.43139648 C-147.24146486 243.4909761 -147.24837147 238.55076968 -147.25981426 233.61035633 C-147.40441862 159.85228523 -146.95069549 52.53371171 -92.4296875 -4.84375 C-85.88255397 -11.01633356 -78.50401208 -14.20995774 -69.9921875 -16.90625 C-69.37472656 -17.1021875 -68.75726563 -17.298125 -68.12109375 -17.5 C-45.67566249 -21.78316486 -18.72040727 -11.9263169 0 0 Z " fill="#FB5500" transform="translate(146.9921875,17.90625)"/>
<path d="M0 0 C25.00373513 22.1967934 33.71968059 55.95292928 36.25756836 88.17163086 C36.66551102 95.5684779 36.64795763 102.97218678 36.63916016 110.37841797 C36.63875229 111.6695752 36.63875229 111.6695752 36.63833618 112.98681641 C36.61759657 127.30611112 36.04822106 141.45179344 34.45166016 155.69091797 C34.3551416 156.61050293 34.25862305 157.53008789 34.15917969 158.47753906 C28.28894936 213.50733374 13.74047578 279.66844683 -31.07177734 316.78076172 C-54.71849912 334.10336023 -83.48015447 340.0601672 -112.39208984 337.32763672 C-130.77377054 334.33858023 -144.18105802 318.38436652 -155.81860352 304.9140625 C-159.44418046 300.75539922 -163.26333823 296.83113807 -167.16943359 292.93701172 C-167.87302505 292.23246353 -168.57661652 291.52791534 -169.30152893 290.80201721 C-170.77848632 289.3243843 -172.25668727 287.8479934 -173.73608398 286.37280273 C-175.97999069 284.13425316 -178.21850689 281.89041324 -180.45654297 279.64599609 C-181.90218602 278.20101393 -183.3481393 276.75634205 -184.79443359 275.31201172 C-185.45301865 274.65140244 -186.1116037 273.99079315 -186.79014587 273.31016541 C-192.89085736 267.23961992 -199.30005446 261.59581057 -206.04833984 256.25341797 C-207.33224609 255.23441406 -207.33224609 255.23441406 -208.64208984 254.19482422 C-209.58568359 253.45039062 -209.58568359 253.45039062 -210.54833984 252.69091797 C-205.84892291 261.6176643 -199.52434002 269.11397365 -193.10107422 276.82226562 C-191.04040561 279.30219606 -189.01446691 281.80974912 -186.98583984 284.31591797 C-181.61787242 290.86914828 -176.07883288 297.27499265 -170.54833984 303.69091797 C-163.44015516 311.93712347 -156.34614773 320.18469791 -149.54833984 328.69091797 C-149.13310059 329.21041016 -148.71786133 329.72990234 -148.29003906 330.26513672 C-136.66760705 344.87668992 -130.00593407 358.61208357 -125.54833984 376.75341797 C-125.37536377 377.45311707 -125.2023877 378.15281616 -125.02416992 378.87371826 C-118.3825823 405.89792415 -110.64161788 437.87009932 -124.70068359 463.81201172 C-134.27730185 478.73371923 -147.67613861 486.74897367 -164.54833984 490.69091797 C-184.08095877 494.36082906 -203.78211491 487.76531278 -219.87939453 476.87597656 C-240.65892737 462.12117077 -251.23585377 438.59284698 -255.59008789 414.13891602 C-262.01119635 374.42212573 -258.51379413 333.17933354 -254.54833984 293.37841797 C-254.42295837 292.09673233 -254.42295837 292.09673233 -254.29504395 290.78915405 C-254.05488184 288.36348738 -253.8037071 285.93924466 -253.54833984 283.51513672 C-253.44208282 282.43625183 -253.44208282 282.43625183 -253.3336792 281.33557129 C-252.66165986 275.19407659 -251.33535272 271.18977351 -247.04833984 266.75341797 C-215.75965052 232.4149286 -203.63121264 185.21409987 -205.54833984 139.69091797 C-206.41686394 127.79777264 -208.53695256 116.26039373 -212.01000977 104.85351562 C-214.58327012 96.13760249 -211.85949675 90.64492131 -207.73583984 82.87841797 C-207.24664063 81.95351562 -206.75744141 81.02861328 -206.25341797 80.07568359 C-182.04572051 35.32066478 -139.11650804 1.00946279 -90.45556641 -13.53759766 C-59.8946521 -22.19456183 -25.28284668 -21.37600503 0 0 Z M-35.54833984 57.69091797 C-35.34337891 58.53654297 -35.13841797 59.38216797 -34.92724609 60.25341797 C-34.65783203 61.38779297 -34.38841797 62.52216797 -34.11083984 63.69091797 C-33.84400391 64.80466797 -33.57716797 65.91841797 -33.30224609 67.06591797 C-31.88323823 73.88891949 -31.35482157 80.49357046 -31.36083984 87.44091797 C-31.36019531 88.22297607 -31.35955078 89.00503418 -31.35888672 89.81079102 C-31.40945017 95.40322419 -31.9707581 100.72380581 -33.11083984 106.21044922 C-33.55956966 108.754587 -33.62238764 111.11312921 -33.54833984 113.69091797 C-34.74458984 113.23716797 -35.94083984 112.78341797 -37.17333984 112.31591797 C-49.81851467 108.19335313 -60.90906554 107.60967139 -73.08740234 113.36279297 C-80.99824086 117.54011211 -87.81792591 122.81105085 -94.54833984 128.69091797 C-95.68270665 129.66609887 -96.81817899 130.63999484 -97.95458984 131.61279297 C-98.54369141 132.11738037 -99.13279297 132.62196777 -99.73974609 133.1418457 C-100.33658203 133.65303955 -100.93341797 134.1642334 -101.54833984 134.69091797 C-102.74626971 135.71824632 -103.94418655 136.74558987 -105.14208984 137.77294922 C-105.71958984 138.26746582 -106.29708984 138.76198242 -106.89208984 139.27148438 C-108.39408092 140.55871552 -109.89324869 141.84923919 -111.39208984 143.14013672 C-124.54785722 154.22580541 -139.6320812 165.16523529 -157.54833984 164.69091797 C-162.58280112 164.25808539 -167.56371988 163.51487837 -172.54833984 162.69091797 C-168.39265006 179.61051207 -155.09898177 193.82955657 -140.54833984 202.69091797 C-120.85616648 214.11962717 -97.86683625 217.76330352 -75.54833984 212.69091797 C-55.86618774 206.88671119 -38.1759998 196.4638327 -27.60693359 178.36669922 C-19.61985275 163.60979246 -19.12001893 150.14722703 -19.54833984 133.69091797 C-22.711694 136.77246124 -25.59721575 139.8865802 -28.29833984 143.37841797 C-32.49945715 148.69298929 -36.9425548 153.72517814 -41.54833984 158.69091797 C-42.46679688 159.72539062 -42.46679688 159.72539062 -43.40380859 160.78076172 C-52.43807324 170.50848805 -64.61921465 177.62179412 -77.54833984 180.69091797 C-79.03333984 180.19591797 -79.03333984 180.19591797 -80.54833984 179.69091797 C-78.91638672 178.58296875 -78.91638672 178.58296875 -77.25146484 177.45263672 C-68.00309206 171.09774525 -59.58787299 164.52242667 -51.54833984 156.69091797 C-50.83548828 156.05154297 -50.12263672 155.41216797 -49.38818359 154.75341797 C-33.63999222 140.22625932 -23.88529724 117.26235803 -22.27490234 96.09716797 C-21.94517707 84.02415024 -22.95588746 70.11124592 -29.54833984 59.69091797 C-30.53833984 58.70091797 -30.53833984 58.70091797 -31.54833984 57.69091797 C-32.86833984 57.69091797 -34.18833984 57.69091797 -35.54833984 57.69091797 Z " fill="#FA4F00" transform="translate(1103.54833984375,110.30908203125)"/>
<path d="M0 0 C11.68275548 11.10329081 18.40703827 24.82592893 22.5625 40.1875 C22.85483521 41.25774414 22.85483521 41.25774414 23.15307617 42.34960938 C26.48516688 55.63685341 27.13115857 69.17991826 27.0625 82.8125 C27.06067719 83.57080109 27.05885437 84.32910217 27.05697632 85.11038208 C26.91318141 120.86098235 19.42749919 157.22024296 -3.25 185.75 C-3.85086426 186.51908691 -3.85086426 186.51908691 -4.46386719 187.30371094 C-23.99940179 212.1521946 -50.95131273 227.21421405 -82.125 231.9375 C-90.98824972 232.97623792 -99.91493785 233.45481248 -108.82177734 233.96557617 C-115.78685747 234.39077818 -122.45653163 235.13143185 -129.25 236.75 C-129.25 238.07 -129.25 239.39 -129.25 240.75 C-97.30680523 249.03156902 -69.50892302 240.45154605 -39.22998047 230.02783203 C-9.48941579 219.84861442 -9.48941579 219.84861442 1.9609375 224.70703125 C5.88788488 226.99632153 8.08788157 230.19111767 9.86328125 234.37109375 C10.98558571 238.64771648 11.09290507 242.59691171 11.0625 247 C11.05686035 247.84828369 11.0512207 248.69656738 11.04541016 249.57055664 C10.92556711 255.74959306 10.29265959 261.06019948 7.75 266.75 C7.33621094 267.71035156 6.92242188 268.67070312 6.49609375 269.66015625 C3.1545313 276.86227041 -0.96796224 282.8431001 -6.25 288.75 C-6.91644531 289.49894531 -7.58289062 290.24789063 -8.26953125 291.01953125 C-23.18097563 306.81625618 -43.09687164 316.48385097 -63.25 323.75 C-63.95463379 324.00410645 -64.65926758 324.25821289 -65.38525391 324.52001953 C-89.91389847 333.09759414 -118.71098132 336.16265438 -144.25 330.75 C-145.44238281 330.50507813 -146.63476562 330.26015625 -147.86328125 330.0078125 C-161.24642437 326.86701256 -174.00440683 321.04921308 -184.25 311.75 C-184.93320313 311.14671875 -185.61640625 310.5434375 -186.3203125 309.921875 C-199.55675309 297.54102182 -205.86974199 280.36610005 -209.72607422 263.06640625 C-210.05709489 261.60288151 -210.40779869 260.1435467 -210.78564453 258.69140625 C-213.76445954 247.11391997 -210.83964962 239.41535354 -206.54296875 228.69140625 C-194.85423974 199.28184234 -190.47661207 166.11587215 -187.25 134.75 C-187.13309814 133.66605957 -187.01619629 132.58211914 -186.89575195 131.46533203 C-186.17203877 123.25466846 -186.34462729 115.2199353 -186.64453125 106.9921875 C-186.74869388 103.41937966 -186.84731424 99.84646589 -186.94360352 96.2734375 C-187.02254658 93.85100399 -187.12490494 91.42921474 -187.2512207 89.00878906 C-188.15752139 70.9514531 -185.5140455 59.87227811 -173.92286682 45.79014587 C-171.68144349 43.05661652 -169.66502537 40.19845055 -167.625 37.3125 C-162.43904113 30.56206192 -156.91057332 24.10458213 -151.25 17.75 C-150.57324219 16.986875 -149.89648438 16.22375 -149.19921875 15.4375 C-115.02057557 -20.86358569 -39.56315019 -33.6196724 0 0 Z M-61.25 71.75 C-62.08660156 72.58660156 -62.92320312 73.42320312 -63.78515625 74.28515625 C-83.60521589 95.08549704 -95.99462622 123.87217906 -95.4375 152.73828125 C-94.99838279 159.7916015 -93.77606411 165.12670823 -89.25 170.75 C-85.44355712 173.28762859 -83.77642303 173.26942559 -79.25 172.75 C-63.54075318 166.27779031 -55.73524972 146.89031267 -49.625 132.3125 C-44.79757695 120.42325862 -41.38758075 108.17635248 -38.25 95.75 C-38.06179688 95.02280762 -37.87359375 94.29561523 -37.6796875 93.54638672 C-34.90997179 82.71207219 -31.45055693 68.94413215 -37.25 58.75 C-45.14184989 54.36563895 -56.29362736 66.79362736 -61.25 71.75 Z " fill="#FC5600" transform="translate(1330.25,123.25)"/>
<path d="M0 0 C12.51094042 10.27017497 19.96481666 21.60264364 22.25 37.6875 C23.96102242 60.84489927 16.54215836 82.58922731 1.49975586 100.26245117 C-9.30470036 112.4445667 -23.42991634 121.37650643 -39.96875 122.890625 C-54.83528252 123.1961017 -67.86907363 118.10783992 -78.69140625 107.94140625 C-86.41878029 99.48088477 -91.39153611 88.44596769 -95.7265625 77.94921875 C-96.07211182 77.11261719 -96.41766113 76.27601563 -96.77368164 75.4140625 C-97.4491774 73.76302703 -98.11555373 72.10822082 -98.77124023 70.44921875 C-101.08626142 64.74631822 -103.70122634 59.0478409 -108.6875 55.1875 C-111.70778009 54.45531089 -113.78416674 54.8040603 -116.75 55.6875 C-120.02431588 59.07472332 -120.9350745 62.57084936 -121.125 67.1875 C-121.03187817 72.51406868 -120.0306558 77.24425258 -118.65234375 82.3515625 C-118.43153641 83.17874786 -118.21072906 84.00593323 -117.98323059 84.85818481 C-115.65429273 93.36826102 -112.78631374 101.67032725 -109.84591675 109.98477173 C-91.64578674 161.62955896 -71.01435649 234.46278065 -92.8046875 288.29296875 C-100.14832151 303.00555966 -114.90201172 309.97679211 -129.75 315 C-148.07689683 320.83840086 -170.55884992 325.3911409 -188.75 316.6875 C-200.4860769 310.08717722 -205.04945948 299.01134895 -208.65625 286.55859375 C-213.22374459 268.31145286 -213.1170371 249.8314864 -213.06805801 231.15113831 C-213.06244588 228.979054 -213.05960404 226.80697746 -213.05697632 224.6348877 C-213.02148532 204.38001166 -212.605272 184.16858312 -211.5625 163.9375 C-211.51227692 162.85530182 -211.46205383 161.77310364 -211.41030884 160.65811157 C-210.78188192 147.59882202 -209.03412581 135.41805588 -205.93115234 122.72265625 C-202.75985327 109.60106251 -202.37336769 96.36945084 -202.4375 82.9375 C-202.43998749 82.10001221 -202.44247498 81.26252441 -202.44503784 80.3996582 C-202.50233 67.90788445 -203.00347081 55.91229049 -205.75 43.6875 C-206.13647705 41.9235791 -206.13647705 41.9235791 -206.53076172 40.12402344 C-209.22583421 27.88105979 -211.95944652 15.64579373 -215.75 3.6875 C-214.23184087 2.16934087 -212.8195329 2.47078317 -210.69946289 2.36206055 C-209.83668228 2.31498459 -208.97390167 2.26790863 -208.0849762 2.21940613 C-207.14041061 2.17149429 -206.19584503 2.12358246 -205.22265625 2.07421875 C-203.21155445 1.9595809 -201.20048782 1.84432465 -199.18945312 1.72851562 C-196.02868466 1.55109708 -192.86790871 1.37783511 -189.70629883 1.21606445 C-169.14680968 0.14895163 -151.44415183 -3.67472796 -132.1875 -10.8125 C-88.21693133 -27.07338345 -39.43665081 -28.78738099 0 0 Z " fill="#FC5A00" transform="translate(1563.75,124.3125)"/>
<path d="M0 0 C3.96 0 7.92 0 12 0 C12.44653931 1.26444946 12.44653931 1.26444946 12.90209961 2.55444336 C14.00496723 5.67309715 15.11037196 8.79082681 16.2175293 11.90795898 C16.69674565 13.25883235 17.17493931 14.61006895 17.65209961 15.96166992 C18.33701135 17.90118634 19.02555629 19.83937881 19.71484375 21.77734375 C20.33540649 23.52905884 20.33540649 23.52905884 20.96850586 25.31616211 C21.74570905 27.88116281 21.74570905 27.88116281 23 29 C23.29769287 28.15703369 23.59538574 27.31406738 23.90209961 26.44555664 C25.00496723 23.32690285 26.11037196 20.20917319 27.2175293 17.09204102 C27.69674565 15.74116765 28.17493931 14.38993105 28.65209961 13.03833008 C29.33701135 11.09881366 30.02555629 9.16062119 30.71484375 7.22265625 C31.12855225 6.05484619 31.54226074 4.88703613 31.96850586 3.68383789 C33 1 33 1 34 0 C37.96 0 41.92 0 46 0 C46 15.84 46 31.68 46 48 C42.7 48 39.4 48 36 48 C35.67 40.41 35.34 32.82 35 25 C34.43410156 26.57652344 33.86820313 28.15304688 33.28515625 29.77734375 C32.54441814 31.83078231 31.80352472 33.88416485 31.0625 35.9375 C30.68931641 36.97841797 30.31613281 38.01933594 29.93164062 39.09179688 C29.57392578 40.08115234 29.21621094 41.07050781 28.84765625 42.08984375 C28.51773682 43.00628662 28.18781738 43.92272949 27.84790039 44.86694336 C27 47 27 47 26 48 C23.66702567 48.04092937 21.33294775 48.04241723 19 48 C15.76630746 40.40612366 12.76316929 32.77780987 10 25 C9.67 32.59 9.34 40.18 9 48 C6.03 48 3.06 48 0 48 C0 32.16 0 16.32 0 0 Z " fill="#000000" transform="translate(1510,12)"/>
<path d="M0 0 C10.89 0 21.78 0 33 0 C33 3.3 33 6.6 33 10 C29.37 10 25.74 10 22 10 C22 22.54 22 35.08 22 48 C18.37 48 14.74 48 11 48 C11 35.46 11 22.92 11 10 C7.04 10 3.08 10 -1 10 C-1.125 2.25 -1.125 2.25 0 0 Z " fill="#000000" transform="translate(1473,12)"/>
</svg>
