<?xml version="1.0" encoding="UTF-8"?>
<svg version="1.1" xmlns="http://www.w3.org/2000/svg" width="987" height="375">
<path d="M0 0 C10.42950021 8.36565652 21.91446832 20.93769308 23.55761719 34.65380859 C24.46539988 45.61780622 23.28360852 53.83581172 16.01464844 62.47998047 C15.12777344 63.22248047 14.24089844 63.96498047 13.32714844 64.72998047 C12.69421875 65.29072266 12.06128906 65.85146484 11.40917969 66.42919922 C9.44130678 68.07217004 7.57630778 69.49982801 5.32714844 70.72998047 C0.89756257 70.20264882 -2.55595002 66.82442595 -5.67285156 63.72998047 C-7.33519285 61.37708139 -8.68199498 58.88850061 -10.04785156 56.35498047 C-13.49937017 50.32118767 -16.83467983 45.68769239 -22.67285156 41.72998047 C-23.44371094 41.20146484 -24.21457031 40.67294922 -25.00878906 40.12841797 C-38.24102069 31.65478068 -53.15282583 28.648772 -68.65722656 31.22607422 C-71.09235482 31.91240814 -73.3499011 32.72926305 -75.67285156 33.72998047 C-76.91421875 34.25785156 -76.91421875 34.25785156 -78.18066406 34.79638672 C-92.97700035 41.65157004 -103.39492604 53.28640424 -109.74316406 68.25341797 C-114.74945644 82.49461863 -113.68955327 97.14897703 -107.54785156 110.79248047 C-100.20228114 124.70923889 -86.24072337 135.30273411 -71.67285156 140.72998047 C-59.94641188 143.57639831 -49.20425258 141.95042636 -38.79394531 136.11669922 C-29.99889825 130.72001048 -23.28702726 124.5810591 -16.67285156 116.72998047 C-15.50496094 115.39386719 -15.50496094 115.39386719 -14.31347656 114.03076172 C-6.51461288 105.06022391 0.53648448 95.56308474 7.62011719 86.02441406 C13.65133018 77.91781513 19.88363565 70.01119919 26.32714844 62.22998047 C33.78721007 53.21619699 41.01514497 44.10296354 47.68188477 34.48217773 C65.61743245 8.64888286 86.00144696 -8.21007379 117.32714844 -15.27001953 C146.63703837 -20.15500119 175.99344915 -14.32902282 200.32714844 2.72998047 C204.13857774 5.58092959 207.76627156 8.57263329 211.32714844 11.72998047 C212.09671875 12.40416016 212.86628906 13.07833984 213.65917969 13.77294922 C232.27156124 31.14667841 241.26942958 56.71417037 242.32714844 81.72998047 C242.84226698 111.12646421 233.14539309 137.7624386 212.92333984 159.2277832 C194.13363058 178.39638943 167.19619411 189.19894661 140.51464844 190.16748047 C119.32252623 189.58554576 99.23544371 181.94170668 80.91113281 171.75488281 C76.52308334 169.27169486 76.52308334 169.27169486 71.66308594 169.12841797 C67.97267673 171.65863164 64.53667622 174.45188763 61.14355469 177.36083984 C56.97826672 180.74697394 56.97826672 180.74697394 53.48339844 180.65576172 C51.32714844 179.72998047 51.32714844 179.72998047 50.32714844 177.72998047 C48.44372474 154.85101386 54.20812572 131.12302759 58.32714844 108.72998047 C108.71892955 107.87465581 108.71892955 107.87465581 128.32714844 116.72998047 C128.8701315 123.24577717 128.21091861 128.31348495 124.32714844 133.72998047 C122.84214844 134.71998047 122.84214844 134.71998047 121.32714844 135.72998047 C121.32714844 136.38998047 121.32714844 137.04998047 121.32714844 137.72998047 C131.55129725 143.0069605 141.41606653 142.98131592 152.45214844 140.16748047 C168.28161859 135.10346653 181.40240826 124.56551719 189.51464844 110.04248047 C196.33443905 95.46125452 195.51311326 80.61144475 190.32714844 65.72998047 C183.82940797 50.73519477 172.57763733 38.90777147 157.32714844 32.72998047 C156.616875 32.43220703 155.90660156 32.13443359 155.17480469 31.82763672 C144.77319112 28.07197924 132.96897614 28.35339807 122.75683594 32.46435547 C117.02220174 35.45152827 112.77846898 39.03101448 108.51464844 43.79248047 C107.99185303 44.36828857 107.46905762 44.94409668 106.93041992 45.53735352 C102.20429712 50.7827351 97.74072896 56.22016972 93.32714844 61.72998047 C92.29719349 62.9927566 91.26585089 64.25440174 90.23339844 65.51513672 C84.29715609 72.77015484 78.46285186 80.08555377 72.77246094 87.53466797 C65.62211259 96.89397348 58.25719111 106.05832761 50.73706055 115.12255859 C46.43414314 120.33082904 42.26376932 125.62938683 38.13964844 130.97998047 C33.19841027 137.38729277 28.12380829 143.63637544 22.84667969 149.76904297 C20.39888781 152.6456728 18.04911848 155.58343361 15.70214844 158.54248047 C0.62316201 176.89256977 -21.38544901 186.08857621 -44.67285156 188.72998047 C-76.69848542 191.08663052 -101.59165154 182.87367208 -126.49316406 162.80810547 C-129.98579274 159.47821576 -129.98579274 159.47821576 -130.67285156 156.72998047 C-129.66113281 153.91748047 -129.66113281 153.91748047 -127.98535156 150.72998047 C-120.03732839 134.57988771 -118.12500367 115.870945 -123.67285156 98.62060547 C-127.4858381 88.73694299 -132.76686394 80.24482483 -142.67285156 75.72998047 C-148.15276593 73.76199535 -153.90304217 73.23751 -159.67285156 72.72998047 C-158.98309093 46.64448748 -142.75882163 24.02365723 -124.54785156 6.72998047 C-89.45799318 -24.39575166 -37.92261781 -28.79063892 0 0 Z " fill="#ffffff" transform="translate(313.6728515625,78.27001953125)"/>
<path d="M0 0 C11.13623469 7.78938777 15.75633771 18.16883691 18.25 31.1875 C20.24143396 51.07762763 17.32577812 70.76590758 13.25 90.1875 C13.10197937 90.89632324 12.95395874 91.60514648 12.80145264 92.33544922 C8.41764415 113.20355884 3.1400201 133.84304738 -2.375 154.4375 C-2.64054687 155.43803406 -2.90609375 156.43856812 -3.1796875 157.46942139 C-12.9162595 194.01545759 -26.52362166 218.83676069 -56.54296875 242.28515625 C-58.65213063 244.1031418 -60.18354147 245.89649062 -61.75 248.1875 C-51.37275809 246.82605427 -44.00220807 240.99116991 -36.72216797 233.88330078 C-34.38403289 231.60696663 -32.89596717 230.23615572 -29.75 229.1875 C-29.04776252 227.87255333 -28.38532682 226.53604813 -27.75 225.1875 C-26.68129614 223.94769133 -25.5716215 222.74276349 -24.4375 221.5625 C-16.6340728 212.95474124 -10.20380249 203.13972933 -3.5625 193.62890625 C12.04190615 171.29284907 29.42293563 149.88046673 57.25 143.1875 C66.72552257 142.26989078 75.40662946 142.20288155 83.25 148.1875 C91.33209512 155.0680093 95.75188192 164.7306358 97.25 175.1875 C98.75149667 198.05035963 93.53666583 218.67000495 78.25 236.1875 C77.79367188 236.77402344 77.33734375 237.36054688 76.8671875 237.96484375 C50.16487956 271.60975175 -7.59948349 293.72200714 -48.765625 299.00390625 C-57.31871775 299.53007819 -66.737274 299.75498036 -73.75 294.1875 C-85.00692493 284.00522184 -86.07783216 264.31743583 -87.75 250.1875 C-87.93925049 248.60775391 -87.93925049 248.60775391 -88.13232422 246.99609375 C-91.68585663 216.6702745 -93.10049991 186.39578214 -93.01074219 155.88232422 C-92.99926876 151.94888575 -93.00619825 148.0157156 -93.0176115 144.08228588 C-93.07584113 120.49827784 -92.25205303 97.19779022 -88.4375 73.875 C-88.32984314 73.20570465 -88.22218628 72.5364093 -88.11126709 71.84683228 C-83.94723764 46.0688376 -77.69925302 10.69507673 -55.71484375 -6.39453125 C-38.45227034 -17.93617474 -16.17526421 -10.04827019 0 0 Z " fill="#ffffff" transform="translate(92.75,11.8125)"/>
<path d="M0 0 C14.54631153 -0.62480801 27.2619282 3.83292287 38.3359375 13.12890625 C52.42290712 26.26082708 57.8008793 46.58221838 59.09765625 65.25 C59.29107287 70.93779799 59.34333321 76.62168977 59.34765625 82.3125 C59.34833099 83.11134613 59.34900574 83.91019226 59.34970093 84.73324585 C59.3313965 98.42923363 58.51582516 111.74475477 56.09765625 125.25 C55.93668457 126.17425781 55.77571289 127.09851563 55.60986328 128.05078125 C50.03571029 159.02186762 40.30554227 193.30525907 13.33203125 212.3125 C-1.2953995 221.07482566 -18.70789032 224.50634375 -35.60546875 221.8203125 C-47.29414725 218.50988258 -56.55443869 207.41512981 -64.15234375 198.5 C-72.53813719 188.71989411 -82.1544814 178.41524156 -92.90234375 171.25 C-87.62831928 178.85079996 -81.90662927 185.86397092 -75.84765625 192.83984375 C-72.54171402 196.64858684 -69.35964937 200.55208689 -66.1875 204.47265625 C-64.5310596 206.48586843 -62.85851237 208.46715532 -61.1484375 210.43359375 C-52.063587 220.89432706 -45.20086483 230.55594918 -41.90234375 244.25 C-41.69335449 245.10770996 -41.48436523 245.96541992 -41.26904297 246.84912109 C-32.06128145 285.26635054 -32.06128145 285.26635054 -41.29296875 301.96484375 C-47.61234121 310.93773911 -56.04832887 315.76260441 -66.65234375 317.625 C-80.33384183 319.21147159 -91.70636945 315.18732927 -102.765625 307.17578125 C-116.30560604 295.73151806 -122.04180447 279.4867202 -123.90234375 262.25 C-124.02480469 261.12851562 -124.14726563 260.00703125 -124.2734375 258.8515625 C-125.4612181 244.39289986 -124.73463106 229.85759401 -124.00726318 215.38995361 C-123.9024558 213.25228537 -123.80932728 211.11432596 -123.71728516 208.97607422 C-122.44267637 181.01325138 -122.44267637 181.01325138 -110.90234375 169.25 C-95.29196184 147.13142232 -88.1538622 117.4436663 -92.76171875 90.67578125 C-93.42365077 87.23952551 -94.15643834 83.82297297 -94.9296875 80.41015625 C-95.17730835 79.30824951 -95.17730835 79.30824951 -95.42993164 78.18408203 C-95.90325156 76.12576323 -95.90325156 76.12576323 -96.76953125 73.68359375 C-96.9887747 69.66627988 -95.0050263 66.6948564 -93.08984375 63.25 C-92.47133545 62.12005615 -92.47133545 62.12005615 -91.84033203 60.96728516 C-75.90146985 32.58540032 -49.17464348 11.73815218 -17.99023438 2.8046875 C-12.02798713 1.22070413 -6.12688275 0.52775302 0 0 Z M15.09765625 48.25 C15.20424561 49.1021106 15.20424561 49.1021106 15.31298828 49.97143555 C16.65960783 61.09172537 17.752952 71.24073531 15.09765625 82.25 C14.54078125 82.105625 13.98390625 81.96125 13.41015625 81.8125 C3.90958882 79.50155117 -3.23940938 79.40930085 -11.90234375 84.25 C-18.66453975 88.85562603 -24.82383275 94.30774484 -31.0078125 99.64648438 C-41.53290765 108.70906631 -50.59900802 114.95344274 -64.90234375 114.25 C-67.90234375 113.75 -67.90234375 113.75 -69.90234375 113.25 C-69.06613773 118.97247011 -66.20476283 122.6384378 -62.90234375 127.25 C-62.32484375 128.11625 -61.74734375 128.9825 -61.15234375 129.875 C-51.63779068 139.91813935 -38.85337209 145.05316223 -25.2253418 145.58642578 C-12.7207093 145.81911121 -2.17854442 142.45243445 8.09765625 135.25 C8.73316406 134.82203125 9.36867188 134.3940625 10.0234375 133.953125 C16.87491346 128.78793248 22.23403554 119.90204683 23.8984375 111.47265625 C24.35241701 106.40766919 24.2369908 101.3279703 24.09765625 96.25 C20.82935164 99.41287543 17.792535 102.71178121 14.78515625 106.125 C6.28024963 115.58583001 -2.18969262 122.70746977 -14.90234375 125.25 C-14.90234375 124.59 -14.90234375 123.93 -14.90234375 123.25 C-14.16886719 122.98832031 -13.43539062 122.72664063 -12.6796875 122.45703125 C-8.17465924 120.49914977 -4.69678952 117.32072795 -0.90234375 114.25 C0.08765625 113.528125 1.07765625 112.80625 2.09765625 112.0625 C11.93576359 103.67278068 20.64822908 89.27183775 22.09765625 76.25 C22.7454037 66.56911996 22.64257832 56.5673831 17.09765625 48.25 C16.43765625 48.25 15.77765625 48.25 15.09765625 48.25 Z " fill="#ffffff" transform="translate(649.90234375,56.75)"/>
<path d="M0 0 C12.61443315 13.55056919 14.50270574 32.33239045 14.41796875 50.01171875 C14.41059692 51.84814941 14.41059692 51.84814941 14.40307617 53.72167969 C14.2807339 63.2204591 13.44515496 72.06335565 11.10546875 81.26171875 C10.93917969 81.93058105 10.77289062 82.59944336 10.6015625 83.28857422 C5.23909547 104.26674384 -7.20961869 121.50189083 -25.45703125 133.38671875 C-39.52236653 141.4548712 -55.25353167 143.28011556 -71.16796875 143.91796875 C-75.03907081 144.27505154 -78.20869619 145.08072767 -81.89453125 146.26171875 C-77.36060084 150.79564916 -69.66361895 149.67637227 -63.6472168 149.71923828 C-51.46600422 149.51983273 -40.42112024 145.6284321 -29.06640625 141.52734375 C-20.00209143 138.2778903 -11.67012518 135.40164046 -1.89453125 137.26171875 C1.19986436 138.96488407 2.53092953 141.11264031 4.10546875 144.26171875 C5.0195909 156.25020599 3.47942911 165.50206533 -3.89453125 175.26171875 C-4.26707031 175.79023438 -4.63960937 176.31875 -5.0234375 176.86328125 C-17.52470585 193.20822315 -40.7644325 201.00530614 -60.26953125 204.57421875 C-80.77231895 207.24291702 -100.45616295 205.30209443 -117.31640625 192.515625 C-128.29547132 182.91726054 -133.1999847 167.38870374 -134.89453125 153.26171875 C-134.45798073 148.33398937 -132.79660165 143.88957775 -131.14453125 139.26171875 C-125.36908042 122.44676157 -121.95577682 104.90329608 -119.89453125 87.26171875 C-119.79084229 86.40288086 -119.68715332 85.54404297 -119.58032227 84.65917969 C-118.95002395 78.54111221 -118.89364462 72.55380061 -119.078125 66.41796875 C-119.1180124 64.82552518 -119.15772356 63.23307718 -119.19726562 61.640625 C-119.25880056 59.19736924 -119.33222438 56.75746649 -119.44311523 54.31591797 C-119.95392478 42.55904049 -118.81880368 35.57009129 -110.89453125 26.26171875 C-109.9422618 24.97255794 -108.99586643 23.6790111 -108.05859375 22.37890625 C-92.48811131 2.23609175 -75.55225672 -9.38601539 -49.9375 -13.17578125 C-31.81599499 -15.11650468 -13.66545878 -12.72463546 0 0 Z M-40.4296875 42.6171875 C-52.91349131 55.67983847 -61.10163651 72.40256075 -61.96875 90.63671875 C-61.83190784 95.47660976 -60.82586697 99.39904732 -58.64453125 103.76171875 C-56.91565954 105.46740135 -56.91565954 105.46740135 -54.20703125 105.94921875 C-48.66973937 104.79996949 -44.92284938 101.10136414 -41.67626953 96.55615234 C-38.42691343 91.57595849 -36.05834877 86.41320356 -33.89453125 80.88671875 C-33.55349365 80.02038818 -33.21245605 79.15405762 -32.86108398 78.26147461 C-25.48415339 59.29308262 -25.48415339 59.29308262 -23.89453125 39.26171875 C-25.1450796 36.4232111 -25.1450796 36.4232111 -26.89453125 34.26171875 C-32.00895915 34.26171875 -36.89456821 39.33263136 -40.4296875 42.6171875 Z " fill="#ffffff" transform="translate(829.89453125,78.73828125)"/>
<path d="M0 0 C7.62879682 7.03364246 10.9837414 16.07354655 11.4140625 26.2578125 C11.19498451 41.13391502 4.64426739 53.44022886 -5.3203125 64.109375 C-12.89790868 71.1753007 -21.67649551 74.9752221 -32.078125 74.67578125 C-40.43949407 73.73451602 -47.2732002 70.25396531 -53.33203125 64.46484375 C-57.4583562 59.19194709 -60.00209931 53.2113765 -62.64453125 47.09375 C-64.09002946 43.79132667 -65.60234344 40.54474258 -67.26171875 37.34375 C-67.64158936 36.60576172 -68.02145996 35.86777344 -68.4128418 35.10742188 C-69.63543964 33.2271409 -69.63543964 33.2271409 -71.76489258 32.53710938 C-73.91378855 32.1600609 -73.91378855 32.1600609 -76 33.8125 C-78.37469289 37.28972887 -78.13059441 40.32641586 -77.75 44.375 C-77.1389915 47.3614886 -76.2480275 50.22570487 -75.3125 53.125 C-75.05098145 53.9698999 -74.78946289 54.8147998 -74.52001953 55.68530273 C-72.89786472 60.88781814 -71.19685142 66.06361046 -69.48828125 71.23828125 C-65.11687357 84.51833507 -61.03396495 97.56694943 -58.75 111.375 C-58.52699219 112.60992187 -58.30398438 113.84484375 -58.07421875 115.1171875 C-56.55322889 125.23642618 -56.5136009 135.41201277 -56.4375 145.625 C-56.42305847 146.71894577 -56.42305847 146.71894577 -56.4083252 147.83499146 C-56.27097023 159.98902639 -56.3081154 173.73975998 -64.75 183.375 C-75.93145235 194.29641858 -93.10031559 197.91874438 -108.2277832 197.86694336 C-116.29062096 197.59294259 -121.6722429 195.18512605 -127.625 189.75 C-136.99441308 174.86916746 -136.09583971 156.44292118 -136 139.5 C-135.99723053 138.54422058 -135.99446106 137.58844116 -135.99160767 136.60369873 C-135.94805938 123.72010464 -135.67844918 110.86304533 -134.9375 98 C-134.86756836 96.71496582 -134.79763672 95.42993164 -134.72558594 94.10595703 C-134.23533973 86.72198977 -133.08671948 79.74335274 -131.44189453 72.53173828 C-127.68122794 55.37386285 -128.70511422 36.21541701 -133.03125 19.32421875 C-133.26110596 18.42598389 -133.49096191 17.52774902 -133.7277832 16.60229492 C-134.19186858 14.81891078 -134.66905868 13.03887231 -135.16088867 11.26293945 C-135.3797876 10.44398193 -135.59868652 9.62502441 -135.82421875 8.78125 C-136.02619873 8.05228516 -136.22817871 7.32332031 -136.4362793 6.57226562 C-136.809806 3.95612527 -136.3888859 1.92271482 -135.75 -0.625 C-135.05140869 -0.66463867 -134.35281738 -0.70427734 -133.63305664 -0.74511719 C-114.45507461 -1.88537004 -97.78125762 -4.49694152 -79.78564453 -11.1628418 C-53.09513034 -20.99172087 -22.49386289 -18.04740162 0 0 Z " fill="#ffffff" transform="translate(975.75,79.625)"/>
<path d="M0 0 C2.64 0 5.28 0 8 0 C8.83919398 2.26882087 9.67151724 4.53977027 10.5 6.8125 C10.73847656 7.45509766 10.97695313 8.09769531 11.22265625 8.75976562 C12.27068746 11.64933739 13 13.90076061 13 17 C13.66 17 14.32 17 15 17 C15.18175781 16.27554687 15.36351562 15.55109375 15.55078125 14.8046875 C16.92167755 9.53200943 18.30679941 4.74516295 21 0 C23.31 0 25.62 0 28 0 C28 9.9 28 19.8 28 30 C26.02 30 24.04 30 22 30 C21.67 26.04 21.34 22.08 21 18 C20.443125 19.794375 19.88625 21.58875 19.3125 23.4375 C18.36328125 26.49609375 18.36328125 26.49609375 17 29 C15.35 29.33 13.7 29.66 12 30 C10.35 26.04 8.7 22.08 7 18 C6.67 21.96 6.34 25.92 6 30 C4.02 30 2.04 30 0 30 C0 20.1 0 10.2 0 0 Z " fill="#ffffff" transform="translate(939,8)"/>
<path d="M0 0 C6.93 0 13.86 0 21 0 C21 1.98 21 3.96 21 6 C18.69 6 16.38 6 14 6 C14 13.92 14 21.84 14 30 C11.69 30 9.38 30 7 30 C7 22.08 7 14.16 7 6 C4.69 6 2.38 6 0 6 C0 4.02 0 2.04 0 0 Z " fill="#ffffff" transform="translate(915,8)"/>
</svg>
